# xmcd
#
# Track frame offsets:
#	150
#	16770
#	41085
#	56755
#	79792
#	91882
#	116780
#	137350
#	161445
#	180117
#
# Disc length: 2654 seconds
#
# Revision: 0
# Processed by: cddbd v1.5.2PL0 Copyright (c) Steve Scherf et al.
# Submitted via: FairStars CD Ripper 1.90
#
DISCID=6f0a5c0a
DTITLE=Huong Lan and Ngoc Lan - Thu Sau
DYEAR=1988
DGENRE=Blues
TTITLE0=Huong Lan - Noi buon gac tro
TTITLE1=Ngoc Lan - Niem dau cua cat
TTITLE2=Huong Lan - Mua nua dem
TTITLE3=Ngoc Lan - Nang chieu
TTITLE4=Huong Lan - Khuc ca buon
TTITLE5=Ngoc Lan - Thu sau
TTITLE6=Huong Lan - Ngoai o den vang
TTITLE7=Ngoc Lan - Huyen thoai mot chieu mua
TTITLE8=Huong Lan - Ai bieu anh lam thinh
TTITLE9=Ngoc Lan - Net son buon
EXTD=
EXTT0=
EXTT1=
EXTT2=
EXTT3=
EXTT4=
EXTT5=
EXTT6=
EXTT7=
EXTT8=
EXTT9=
PLAYORDER=
